# Blender v2.79 (sub 0) OBJ File: ''
# www.blender.org
mtllib character2.mtl
o Player_Cube
v 0.198781 0.287138 0.300130
v -0.204244 0.287138 0.300129
v -0.204244 -0.392962 0.300129
v 0.198781 -0.392962 0.300129
v -0.204244 0.287138 0.098619
v -0.204244 -0.392962 0.098619
v 0.198781 0.287138 0.098619
v 0.198781 -0.392962 0.098619
v -0.002731 -0.292207 0.199374
v -0.002731 -0.292207 -0.480724
v -0.002731 -0.493718 -0.480724
v -0.002731 -0.493718 0.199374
v -0.204244 0.287138 0.300130
v -0.405756 0.287138 0.300130
v -0.405756 -0.392962 0.300129
v -0.204244 -0.392962 0.300129
v -0.204244 0.287138 0.098619
v -0.204244 -0.392962 0.098619
v -0.002731 -0.292207 -0.480724
v -0.002731 -0.493718 -0.480724
v -0.204244 -0.493718 -0.480724
v -0.204244 -0.292207 -0.480724
v -0.204244 -0.493718 0.199374
v -0.204244 -0.292207 0.199374
v 0.198781 0.690160 0.400885
v -0.204244 0.690160 0.400885
v -0.204244 0.287137 0.400885
v 0.198781 0.287137 0.400885
v -0.204244 0.690160 -0.002136
v -0.204244 0.287138 -0.002136
v 0.198781 0.690160 -0.002136
v 0.198781 0.287138 -0.002136
v -0.002731 -0.493718 0.199374
v 0.198781 -0.292207 0.199374
v 0.198781 -0.292207 -0.480724
v -0.002731 -0.292207 0.199374
v 0.198781 -0.392962 0.098619
v 0.400294 -0.392962 0.098619
v 0.400294 -0.392962 0.300129
v 0.198781 -0.392962 0.300129
v 0.400294 0.287138 0.098619
v 0.198781 0.287138 0.098619
v 0.198781 0.287138 0.300130
v 0.400294 0.287138 0.300130
v 0.198781 -0.493718 -0.480724
v 0.198781 -0.493718 0.199374
v -0.405756 0.287138 0.098619
v -0.405756 -0.392962 0.098619
v 0.218933 0.710612 0.421036
v -0.224395 0.710612 0.421036
v -0.224395 0.267288 0.421036
v 0.218933 0.267288 0.421036
v -0.224395 0.710612 -0.022287
v -0.224395 0.267288 -0.022287
v 0.218933 0.710612 -0.022287
v 0.218933 0.267288 -0.022287
v 0.198781 0.287138 0.336845
v -0.204244 0.287138 0.336845
v -0.204244 -0.392962 0.336845
v 0.198781 -0.392962 0.336845
v 0.198781 0.287138 0.300130
v 0.198781 -0.392962 0.300129
v -0.204244 -0.392962 0.300129
v -0.204244 0.287138 0.300130
vt 0.625000 0.375000
vt 0.500000 0.375000
vt 0.500000 0.000000
vt 0.625000 0.000000
vt 0.437500 0.375000
vt 0.437500 0.000000
vt 0.312500 0.375000
vt 0.312500 0.000000
vt 0.562500 0.375000
vt 0.562500 0.500000
vt 0.437500 0.500000
vt 0.437500 0.375000
vt 0.437500 0.500000
vt 0.312500 0.500000
vt 0.125000 0.375000
vt 0.125000 0.000000
vt 0.187500 0.000000
vt 0.187500 0.375000
vt 0.812500 0.375000
vt 0.875000 0.375000
vt 0.875000 0.000000
vt 0.812500 0.000000
vt 0.750000 0.375000
vt 0.750000 0.000000
vt 0.187500 0.375000
vt 0.187500 0.500000
vt 0.125000 0.500000
vt 0.125000 0.375000
vt 0.000000 0.375000
vt 0.062500 0.375000
vt 0.062500 0.000000
vt 0.000000 0.000000
vt 0.500000 0.750000
vt 0.375000 0.750000
vt 0.375000 0.500000
vt 0.500000 0.500000
vt 0.250000 0.750000
vt 0.250000 0.500000
vt 0.125000 0.750000
vt 0.125000 0.500000
vt 0.375000 0.750000
vt 0.375000 1.000000
vt 0.250000 1.000000
vt 0.250000 0.750000
vt 0.250000 1.000000
vt 0.125000 1.000000
vt 0.187500 0.375000
vt 0.250000 0.375000
vt 0.250000 0.000000
vt 0.187500 0.000000
vt 0.062500 0.375000
vt 0.062500 0.000000
vt 0.125000 0.375000
vt 0.125000 0.000000
vt 0.750000 0.375000
vt 0.812500 0.375000
vt 0.812500 0.500000
vt 0.750000 0.500000
vt 0.687500 0.375000
vt 0.750000 0.375000
vt 0.750000 0.500000
vt 0.687500 0.500000
vt 0.250000 0.000000
vt 0.250000 0.375000
vt 0.000000 0.375000
vt 0.000000 0.000000
vt 0.250000 0.375000
vt 0.250000 0.000000
vt 0.000000 0.750000
vt 0.000000 0.500000
vt 0.125000 0.375000
vt 0.125000 0.500000
vt 0.062500 0.500000
vt 0.062500 0.375000
vt 0.687500 0.375000
vt 0.687500 0.000000
vt 0.625000 0.375000
vt 0.625000 0.000000
vt 0.625000 0.375000
vt 0.625000 0.000000
vt 0.687500 0.000000
vt 0.687500 0.500000
vt 0.750000 0.500000
vt 0.750000 0.000000
vt 0.187500 0.375000
vt 0.125000 0.375000
vt 0.125000 0.500000
vt 0.187500 0.500000
vt 0.812500 0.000000
vt 0.812500 0.375000
vt 0.750000 0.375000
vt 0.750000 0.500000
vt 0.812500 0.500000
vt 0.812500 0.375000
vt 0.875000 0.000000
vt 0.875000 0.375000
vt 0.125000 0.375000
vt 0.062500 0.375000
vt 0.062500 0.500000
vt 0.125000 0.500000
vt 1.000000 0.750000
vt 0.875000 0.750000
vt 0.875000 0.500000
vt 1.000000 0.500000
vt 0.750000 0.750000
vt 0.750000 0.500000
vt 0.625000 0.750000
vt 0.625000 0.500000
vt 0.875000 0.750000
vt 0.875000 1.000000
vt 0.750000 1.000000
vt 0.750000 0.750000
vt 0.750000 1.000000
vt 0.625000 1.000000
vt 0.500000 0.750000
vt 0.500000 0.500000
vt 1.000000 0.375000
vt 0.875000 0.375000
vt 0.875000 0.000000
vt 1.000000 0.000000
vt 1.000000 0.375000
vt 1.000000 0.000000
vt 0.875000 0.000000
vt 0.875000 0.375000
vt 1.000000 0.343750
vt 0.875000 0.343750
vt 0.984375 0.000000
vt 0.984375 0.375000
vt 0.890625 0.375000
vt 0.890625 0.000000
vt 0.875000 0.031250
vt 1.000000 0.031250
vn -0.0000 -0.0000 1.0000
vn -1.0000 0.0000 0.0000
vn 0.0000 0.0000 -1.0000
vn 0.0000 -1.0000 0.0000
vn 0.0000 1.0000 0.0000
vn 1.0000 0.0000 0.0000
usemtl Character
s 1
f 1/1/1 2/2/1 3/3/1 4/4/1
f 2/2/2 5/5/2 6/6/2 3/3/2
f 5/5/3 7/7/3 8/8/3 6/6/3
f 8/9/4 4/10/4 3/11/4 6/12/4
f 5/5/5 2/13/5 1/14/5 7/7/5
f 9/15/2 10/16/2 11/17/2 12/18/2
f 13/19/1 14/20/1 15/21/1 16/22/1
f 17/23/6 13/19/6 16/22/6 18/24/6
f 19/25/3 20/26/3 21/27/3 22/28/3
f 23/29/2 24/30/2 22/31/2 21/32/2
f 25/33/1 26/34/1 27/35/1 28/36/1
f 26/34/2 29/37/2 30/38/2 27/35/2
f 29/37/3 31/39/3 32/40/3 30/38/3
f 32/41/4 28/42/4 27/43/4 30/44/4
f 29/37/5 26/45/5 25/46/5 31/39/5
f 33/47/4 23/48/4 21/49/4 20/50/4
f 34/51/5 35/52/5 10/16/5 9/15/5
f 24/30/5 36/53/5 19/54/5 22/31/5
f 37/55/4 38/56/4 39/57/4 40/58/4
f 41/59/5 42/60/5 43/61/5 44/62/5
f 12/18/4 11/17/4 45/63/4 46/64/4
f 36/53/6 33/47/6 20/50/6 19/54/6
f 46/65/6 45/66/6 35/52/6 34/51/6
f 1/67/6 4/68/6 8/8/6 7/7/6
f 25/69/6 28/70/6 32/40/6 31/39/6
f 24/71/1 23/72/1 33/73/1 36/74/1
f 47/75/3 17/23/3 18/24/3 48/76/3
f 14/77/2 47/75/2 48/76/2 15/78/2
f 44/79/6 39/80/6 38/81/6 41/59/6
f 47/75/5 14/82/5 13/83/5 17/23/5
f 41/59/3 38/81/3 37/84/3 42/60/3
f 10/85/3 35/86/3 45/87/3 11/88/3
f 42/60/2 37/84/2 40/89/2 43/90/2
f 18/91/4 16/92/4 15/93/4 48/94/4
f 43/90/1 40/89/1 39/95/1 44/96/1
f 34/97/1 9/98/1 12/99/1 46/100/1
f 49/101/1 50/102/1 51/103/1 52/104/1
f 50/102/2 53/105/2 54/106/2 51/103/2
f 53/105/3 55/107/3 56/108/3 54/106/3
f 56/109/4 52/110/4 51/111/4 54/112/4
f 53/105/5 50/113/5 49/114/5 55/107/5
f 49/115/6 52/116/6 56/108/6 55/107/6
f 57/117/1 58/118/1 59/119/1 60/120/1
f 61/121/3 62/122/3 63/123/3 64/124/3
f 58/118/5 57/117/5 61/125/5 64/126/5
f 57/117/6 60/120/6 62/127/6 61/128/6
f 59/119/2 58/118/2 64/129/2 63/130/2
f 60/120/4 59/119/4 63/131/4 62/132/4
