# Blender v2.79 (sub 0) OBJ File: 'horse.blend'
# www.blender.org
mtllib horse.mtl
o horse_Cube
v -0.720000 -0.000000 -0.269999
v 0.720000 -0.000000 -0.270001
v 0.720000 -0.000000 0.269999
v -0.720000 -0.000000 0.270001
v -0.720000 0.540004 -0.269999
v 0.720000 0.540004 -0.270001
v 0.720000 0.540004 0.269999
v -0.720000 0.540004 0.270001
v -0.450000 -0.360003 -0.090000
v -0.630000 -0.360003 -0.089999
v -0.630000 -0.360003 -0.269999
v -0.450000 -0.360003 -0.270000
v -0.450000 -0.000000 -0.090000
v -0.630000 -0.000000 -0.089999
v -0.630000 -0.000000 -0.269999
v -0.450000 -0.000000 -0.270000
v -0.450000 -0.000000 0.090000
v -0.630000 -0.000000 0.090001
v -0.630000 -0.000000 0.270001
v -0.450000 -0.000000 0.270000
v -0.450000 -0.360003 0.090000
v -0.630000 -0.360003 0.090001
v -0.630000 -0.360003 0.270001
v -0.450000 -0.360003 0.270000
v 0.630000 -0.360003 0.269999
v 0.450000 -0.360003 0.270000
v 0.450000 -0.360003 0.090000
v 0.630000 -0.360003 0.089999
v 0.630000 -0.000000 0.269999
v 0.450000 -0.000000 0.270000
v 0.450000 -0.000000 0.090000
v 0.630000 -0.000000 0.089999
v 0.630000 -0.000000 -0.270001
v 0.450000 -0.000000 -0.270000
v 0.450000 -0.000000 -0.090000
v 0.630000 -0.000000 -0.090001
v 0.630000 -0.360003 -0.270001
v 0.450000 -0.360003 -0.270000
v 0.450000 -0.360003 -0.090000
v 0.630000 -0.360003 -0.090001
v 1.281838 0.847285 0.161999
v 0.772721 0.338165 0.161999
v 0.772721 0.338165 -0.162001
v 1.281837 0.847285 -0.162001
v 1.027279 1.101846 0.161999
v 0.518162 0.592725 0.161999
v 0.518162 0.592725 -0.162001
v 1.027279 1.101846 -0.162001
v 1.387279 0.338165 0.179998
v 0.878163 0.847285 0.179999
v 0.878162 0.847285 -0.180001
v 1.387279 0.338165 -0.180001
v 1.641838 0.592725 0.179998
v 1.132721 1.101846 0.179999
v 1.132721 1.101846 -0.180001
v 1.641837 0.592725 -0.180002
v -0.720000 -0.270002 0.090001
v -0.900000 -0.270002 0.090001
v -0.900000 -0.270002 -0.089999
v -0.720000 -0.270002 -0.089999
v -0.720000 0.450003 0.090001
v -0.900000 0.450003 0.090001
v -0.900000 0.450003 -0.089999
v -0.720000 0.450003 -0.089999
v 1.080000 0.952728 0.134999
v 0.952721 1.080008 0.134999
v 0.952721 1.080008 0.044999
v 1.080000 0.952727 0.044999
v 1.207279 1.080008 0.134999
v 1.080000 1.207288 0.134999
v 1.080000 1.207288 0.044999
v 1.207279 1.080008 0.044999
v 1.080000 0.952728 -0.045001
v 0.952721 1.080008 -0.045001
v 0.952721 1.080008 -0.135001
v 1.080000 0.952727 -0.135001
v 1.207279 1.080008 -0.045001
v 1.080000 1.207288 -0.045001
v 1.080000 1.207288 -0.135001
v 1.207279 1.080008 -0.135001
v -0.450000 -0.720005 -0.090000
v -0.630000 -0.720005 -0.089999
v -0.630000 -0.720005 -0.269999
v -0.450000 -0.720005 -0.270000
v -0.450000 -0.360003 -0.090000
v -0.630000 -0.360003 -0.089999
v -0.630000 -0.360003 -0.269999
v -0.450000 -0.360003 -0.270000
v -0.450000 -0.360003 0.090000
v -0.630000 -0.360003 0.090001
v -0.630000 -0.360003 0.270001
v -0.450000 -0.360003 0.270000
v -0.450000 -0.720005 0.090000
v -0.630000 -0.720005 0.090001
v -0.630000 -0.720005 0.270001
v -0.450000 -0.720005 0.270000
v 0.630000 -0.720005 0.269999
v 0.450000 -0.720005 0.270000
v 0.450000 -0.720005 0.090000
v 0.630000 -0.720005 0.089999
v 0.630000 -0.360003 0.269999
v 0.450000 -0.360003 0.270000
v 0.450000 -0.360003 0.090000
v 0.630000 -0.360003 0.089999
v 0.630000 -0.360003 -0.270001
v 0.450000 -0.360003 -0.270000
v 0.450000 -0.360003 -0.090000
v 0.630000 -0.360003 -0.090001
v 0.630000 -0.720005 -0.270001
v 0.450000 -0.720005 -0.270000
v 0.450000 -0.720005 -0.090000
v 0.630000 -0.720005 -0.090001
v 0.438270 0.636914 -0.045001
v 0.438270 0.636914 0.044999
v 1.010090 1.208738 0.044999
v 1.010090 1.208738 -0.045001
v 0.501910 0.573274 -0.045001
v 0.501910 0.573274 0.044999
v 1.073730 1.145098 0.044999
v 1.073730 1.145098 -0.045001
vt -0.000001 0.750000
vt 0.999999 0.750000
vt 1.000001 1.000000
vt 0.000001 1.000000
vt 0.000000 1.000000
vt -0.000000 0.750000
vt 1.000000 0.750000
vt 1.000000 1.000000
vt 0.000000 1.000000
vt -0.000000 0.750000
vt 1.000000 0.750000
vt 1.000000 1.000000
vt 0.500000 0.166666
vt 0.500000 0.500000
vt 0.000000 0.500000
vt -0.000000 0.166667
vt 1.000000 0.750000
vt 1.000000 1.000000
vt -0.000000 1.000000
vt 0.000000 0.750000
vt 0.000001 0.500000
vt -0.000001 0.166667
vt 0.499999 0.166666
vt 0.500001 0.499999
vt 0.687500 0.750000
vt 0.687500 0.666667
vt 0.937500 0.666826
vt 0.937500 0.750159
vt 0.687500 0.750000
vt 0.687500 0.666667
vt 0.937500 0.666826
vt 0.937500 0.750159
vt 0.687500 0.750000
vt 0.687500 0.666667
vt 0.937500 0.666826
vt 0.937500 0.750159
vt 0.687500 0.750000
vt 0.687500 0.666667
vt 0.937500 0.666826
vt 0.937500 0.750159
vt 0.500000 0.000000
vt 0.625000 0.000000
vt 0.625000 0.083333
vt 0.500000 0.083333
vt 0.500000 0.000000
vt 0.625000 0.000000
vt 0.625000 0.083333
vt 0.500000 0.083333
vt 0.687500 0.750000
vt 0.687500 0.666667
vt 0.937500 0.666826
vt 0.937500 0.750159
vt 0.687500 0.750000
vt 0.687500 0.666667
vt 0.937500 0.666826
vt 0.937500 0.750159
vt 0.687500 0.750000
vt 0.687500 0.666667
vt 0.937500 0.666826
vt 0.937500 0.750159
vt 0.687500 0.750000
vt 0.687500 0.666667
vt 0.937500 0.666826
vt 0.937500 0.750159
vt 0.687500 0.750000
vt 0.687500 0.666667
vt 0.937500 0.666826
vt 0.937500 0.750159
vt 0.687500 0.750000
vt 0.687500 0.666667
vt 0.937500 0.666826
vt 0.937500 0.750159
vt 0.687500 0.750000
vt 0.687500 0.666667
vt 0.937500 0.666826
vt 0.937500 0.750159
vt 0.687500 0.750000
vt 0.687500 0.666667
vt 0.937500 0.666826
vt 0.937500 0.750159
vt 0.500000 0.000000
vt 0.625000 0.000000
vt 0.625000 0.083333
vt 0.500000 0.083333
vt 0.500000 0.000000
vt 0.625000 0.000000
vt 0.625000 0.083333
vt 0.500000 0.083333
vt 0.687500 0.750000
vt 0.687500 0.666667
vt 0.937500 0.666826
vt 0.937500 0.750159
vt 0.687500 0.750000
vt 0.687500 0.666667
vt 0.937500 0.666826
vt 0.937500 0.750159
vt 0.687500 0.750000
vt 0.687500 0.666667
vt 0.937500 0.666826
vt 0.937500 0.750159
vt 0.687500 0.750000
vt 0.687500 0.666667
vt 0.937500 0.666826
vt 0.937500 0.750159
vt 0.500000 0.666666
vt 0.000000 0.666667
vt -0.000000 0.500000
vt 0.500000 0.500000
vt 0.000000 0.000000
vt 0.250000 0.000000
vt 0.250000 0.166667
vt 0.000000 0.166667
vt 0.000000 0.500000
vt 0.500000 0.500000
vt 0.500000 0.666667
vt 0.000000 0.666667
vt 0.000000 0.000000
vt 0.250000 0.000000
vt 0.250000 0.166667
vt 0.000000 0.166667
vt 0.500000 0.666666
vt 0.000000 0.666667
vt -0.000000 0.500000
vt 0.500000 0.500000
vt 0.500000 0.666666
vt 0.000000 0.666667
vt -0.000000 0.500000
vt 0.500000 0.500000
vt 1.000000 0.500000
vt 0.500000 0.500000
vt 0.500000 0.333334
vt 1.000000 0.333333
vt 0.000000 0.000000
vt 0.250000 0.000000
vt 0.250000 0.166667
vt 0.000000 0.166667
vt 0.500000 0.500000
vt 1.000000 0.500000
vt 1.000000 0.333333
vt 0.500000 0.333333
vt 0.250000 0.000000
vt 0.500000 0.000000
vt 0.500000 0.166667
vt 0.250000 0.166667
vt 0.500000 0.166667
vt 1.000000 0.166666
vt 1.000000 0.666666
vt 0.500000 0.666667
vt 0.000000 0.750000
vt -0.000000 0.666667
vt 0.500000 0.666666
vt 0.500000 0.750000
vt 0.000000 0.750000
vt -0.000000 0.666667
vt 0.500000 0.666666
vt 0.500000 0.750000
vt 0.000000 0.750000
vt -0.000000 0.666667
vt 0.500000 0.666666
vt 0.500000 0.750000
vt 0.000000 0.750000
vt -0.000000 0.666667
vt 0.500000 0.666666
vt 0.500000 0.750000
vt 0.000000 0.666667
vt 0.125000 0.666667
vt 0.125000 0.750000
vt 0.000000 0.750000
vt 0.500000 0.083333
vt 0.625000 0.083333
vt 0.625000 0.166667
vt 0.500000 0.166667
vt 0.937500 0.750000
vt 0.937500 0.666667
vt 1.000000 0.666667
vt 1.000000 0.750000
vt 0.500000 0.083333
vt 0.625000 0.083333
vt 0.625000 0.166667
vt 0.500000 0.166667
vt 0.937500 0.750000
vt 0.937500 0.666667
vt 1.000000 0.666667
vt 1.000000 0.750000
vt 0.937500 0.750000
vt 0.937500 0.666667
vt 1.000000 0.666667
vt 1.000000 0.750000
vt 0.500000 0.083333
vt 0.625000 0.083333
vt 0.625000 0.166667
vt 0.500000 0.166667
vt 0.937500 0.750000
vt 0.937500 0.666667
vt 1.000000 0.666667
vt 1.000000 0.750000
vt 0.500000 0.083333
vt 0.625000 0.083333
vt 0.625000 0.166667
vt 0.500000 0.166667
vt 0.937500 0.750000
vt 0.937500 0.666667
vt 1.000000 0.666667
vt 1.000000 0.750000
vt 0.937500 0.750000
vt 0.937500 0.666667
vt 1.000000 0.666667
vt 1.000000 0.750000
vt 0.875000 0.666799
vt 0.875000 0.750132
vt 0.625000 0.750000
vt 0.625000 0.666667
vt 0.875000 0.666799
vt 0.875000 0.750132
vt 0.625000 0.750000
vt 0.625000 0.666667
vt 0.875000 0.666799
vt 0.875000 0.750132
vt 0.625000 0.750000
vt 0.625000 0.666667
vt 0.875000 0.666799
vt 0.875000 0.750132
vt 0.625000 0.750000
vt 0.625000 0.666667
vt 0.500000 0.666667
vt 0.500000 0.750000
vt 0.500000 0.000000
vt 0.625000 0.000000
vt 0.625000 0.083333
vt 0.500000 0.083333
vt 0.500000 0.000000
vt 0.625000 0.000000
vt 0.625000 0.083333
vt 0.500000 0.083333
vt 0.500000 0.666667
vt 0.625000 0.666667
vt 0.625000 0.750000
vt 0.500000 0.750000
vt 0.875000 0.666799
vt 0.875000 0.750132
vt 0.625000 0.750000
vt 0.625000 0.666667
vt 0.875000 0.666799
vt 0.875000 0.750132
vt 0.625000 0.750000
vt 0.625000 0.666667
vt 0.875000 0.666799
vt 0.875000 0.750132
vt 0.875000 0.666799
vt 0.875000 0.750132
vt 0.625000 0.750000
vt 0.625000 0.666667
vt 0.875000 0.666799
vt 0.875000 0.750132
vt 0.625000 0.750000
vt 0.625000 0.666667
vt 0.875000 0.666799
vt 0.875000 0.750132
vt 0.625000 0.750000
vt 0.625000 0.666667
vt 0.875000 0.666799
vt 0.875000 0.750132
vt 0.625000 0.750000
vt 0.625000 0.666667
vt 0.875000 0.666799
vt 0.875000 0.750132
vt 0.625000 0.750000
vt 0.625000 0.666667
vt 0.500000 0.666667
vt 0.500000 0.750000
vt 0.500000 0.000000
vt 0.625000 0.000000
vt 0.625000 0.083333
vt 0.500000 0.083333
vt 0.500000 0.000000
vt 0.625000 0.000000
vt 0.625000 0.083333
vt 0.500000 0.083333
vt 0.500000 0.666667
vt 0.625000 0.666667
vt 0.625000 0.750000
vt 0.500000 0.750000
vt 0.875000 0.666799
vt 0.875000 0.750132
vt 0.625000 0.750000
vt 0.625000 0.666667
vt 0.875000 0.666799
vt 0.875000 0.750132
vt 0.625000 0.750000
vt 0.625000 0.666667
vt 0.875000 0.666799
vt 0.875000 0.750132
vt 0.875000 0.666799
vt 0.875000 0.750132
vt 0.625000 0.750000
vt 0.625000 0.666667
vt 0.625000 0.166667
vt 0.625000 0.125000
vt 0.906250 0.125000
vt 0.906250 0.166667
vt 0.937500 0.125000
vt 1.000000 0.125000
vt 1.000000 0.166667
vt 0.937500 0.166667
vt 0.625000 0.166667
vt 0.625000 0.125000
vt 0.906250 0.166667
vt 0.625000 0.166667
vt 0.906250 0.125000
vt 0.906250 0.166667
vt 0.625000 0.125000
vt 0.906250 0.125000
vt 0.937500 0.125000
vt 1.000000 0.125000
vt 1.000000 0.166667
vt 0.937500 0.166667
vt 0.000000 0.000000
vt 0.000000 0.000000
vt 0.000000 0.000000
vt 0.000000 0.000000
vt 0.000000 0.000000
vt 0.000000 0.000000
vt 0.000000 0.000000
vt 0.000000 0.000000
vt 0.000000 0.000000
vt 0.000000 0.000000
vt 0.000000 0.000000
vt 0.000000 0.000000
vt 0.000000 0.000000
vt 0.000000 0.000000
vt 0.000000 0.000000
vt 0.000000 0.000000
vt 0.125000 0.666667
vt 0.125000 0.750000
vn 0.0000 -1.0000 0.0000
vn 0.0000 1.0000 0.0000
vn -0.0000 0.0000 -1.0000
vn 1.0000 -0.0000 -0.0000
vn 0.0000 -0.0000 1.0000
vn -1.0000 0.0000 0.0000
vn -0.7071 -0.7071 0.0000
vn 0.7071 0.7071 -0.0000
vn 0.7071 -0.7071 -0.0000
vn -0.7071 0.7071 0.0000
usemtl horse
s off
f 1/1/1 2/2/1 3/3/1 4/4/1
f 5/5/2 8/6/2 7/7/2 6/8/2
f 1/9/3 5/10/3 6/11/3 2/12/3
f 2/13/4 6/14/4 7/15/4 3/16/4
f 3/17/5 7/18/5 8/19/5 4/20/5
f 5/21/6 1/22/6 4/23/6 8/24/6
f 13/25/5 14/26/5 10/27/5 9/28/5
f 14/29/6 15/30/6 11/31/6 10/32/6
f 15/33/3 16/34/3 12/35/3 11/36/3
f 16/37/4 13/38/4 9/39/4 12/40/4
f 9/41/1 10/42/1 11/43/1 12/44/1
f 24/45/1 23/46/1 22/47/1 21/48/1
f 17/49/4 20/50/4 24/51/4 21/52/4
f 18/53/3 17/54/3 21/55/3 22/56/3
f 19/57/6 18/58/6 22/59/6 23/60/6
f 20/61/5 19/62/5 23/63/5 24/64/5
f 29/65/5 30/66/5 26/67/5 25/68/5
f 30/69/6 31/70/6 27/71/6 26/72/6
f 31/73/3 32/74/3 28/75/3 27/76/3
f 32/77/4 29/78/4 25/79/4 28/80/4
f 25/81/1 26/82/1 27/83/1 28/84/1
f 40/85/1 39/86/1 38/87/1 37/88/1
f 33/89/4 36/90/4 40/91/4 37/92/4
f 34/93/3 33/94/3 37/95/3 38/96/3
f 35/97/6 34/98/6 38/99/6 39/100/6
f 36/101/5 35/102/5 39/103/5 40/104/5
f 45/105/5 46/106/5 42/107/5 41/108/5
f 46/109/7 47/110/7 43/111/7 42/112/7
f 47/113/3 48/114/3 44/115/3 43/116/3
f 48/117/8 45/118/8 41/119/8 44/120/8
f 41/121/9 42/122/9 43/123/9 44/124/9
f 48/125/10 47/126/10 46/127/10 45/128/10
f 53/129/5 54/130/5 50/131/5 49/132/5
f 54/133/10 55/134/10 51/135/10 50/136/10
f 55/137/3 56/138/3 52/139/3 51/140/3
f 56/141/9 53/142/9 49/143/9 52/144/9
f 49/132/7 50/131/7 51/145/7 52/146/7
f 56/147/8 55/148/8 54/130/8 53/129/8
f 61/149/5 62/150/5 58/151/5 57/152/5
f 62/153/6 63/154/6 59/155/6 58/156/6
f 63/157/3 64/158/3 60/159/3 59/160/3
f 64/161/4 61/162/4 57/163/4 60/164/4
f 57/165/1 58/166/1 59/167/1 60/168/1
f 69/169/5 70/170/5 66/171/5 65/172/5
f 70/173/10 71/174/10 67/175/10 66/176/10
f 71/177/3 72/178/3 68/179/3 67/180/3
f 72/181/9 69/182/9 65/183/9 68/184/9
f 65/185/7 66/186/7 67/175/7 68/184/7
f 72/181/8 71/174/8 70/187/8 69/188/8
f 77/189/5 78/190/5 74/191/5 73/192/5
f 78/193/10 79/194/10 75/195/10 74/196/10
f 79/197/3 80/198/3 76/199/3 75/200/3
f 80/201/9 77/202/9 73/203/9 76/204/9
f 73/205/7 74/206/7 75/195/7 76/204/7
f 80/201/8 79/194/8 78/207/8 77/208/8
f 85/209/5 86/210/5 82/211/5 81/212/5
f 86/213/6 87/214/6 83/215/6 82/216/6
f 87/217/3 88/218/3 84/219/3 83/220/3
f 88/221/4 85/222/4 81/223/4 84/224/4
f 81/225/1 82/216/1 83/215/1 84/226/1
f 88/227/2 87/228/2 86/229/2 85/230/2
f 89/231/2 90/232/2 91/233/2 92/234/2
f 96/235/1 95/236/1 94/237/1 93/238/1
f 89/239/4 92/240/4 96/241/4 93/242/4
f 90/243/3 89/244/3 93/245/3 94/246/3
f 91/247/6 90/248/6 94/237/6 95/236/6
f 92/249/5 91/250/5 95/251/5 96/252/5
f 101/253/5 102/254/5 98/255/5 97/256/5
f 102/257/6 103/258/6 99/259/6 98/260/6
f 103/261/3 104/262/3 100/263/3 99/264/3
f 104/265/4 101/266/4 97/267/4 100/268/4
f 97/269/1 98/260/1 99/259/1 100/270/1
f 104/271/2 103/272/2 102/273/2 101/274/2
f 105/275/2 106/276/2 107/277/2 108/278/2
f 112/279/1 111/280/1 110/281/1 109/282/1
f 105/283/4 108/284/4 112/285/4 109/286/4
f 106/287/3 105/288/3 109/289/3 110/290/3
f 107/291/6 106/292/6 110/281/6 111/280/6
f 108/293/5 107/294/5 111/295/5 112/296/5
f 120/297/9 119/298/9 118/299/9 117/300/9
f 114/301/7 113/302/7 117/303/7 118/304/7
f 115/305/5 114/306/5 118/299/5 119/307/5
f 113/308/10 114/306/10 115/309/10 116/310/10
f 113/308/3 116/311/3 120/312/3 117/300/3
f 116/313/8 115/314/8 119/315/8 120/316/8
usemtl horse_NONE
f 16/317/2 15/318/2 14/319/2 13/320/2
f 17/321/2 18/322/2 19/323/2 20/324/2
f 32/325/2 31/326/2 30/327/2 29/328/2
f 33/329/2 34/330/2 35/331/2 36/332/2
f 64/158/2 63/333/2 62/334/2 61/149/2
